<svg xmlns="http://www.w3.org/2000/svg"  width="100%" height="100%" viewBox="0 0 17 17">
  <defs>
    <style>
      .cls-1 {
        fill: #d1d3d4;
      }
    </style>
  </defs>
  <path id="_-e-ic_search" data-name="-e-ic_search" class="cls-1" d="M1815.315,2987.559a5.436,5.436,0,0,0-.423-7.843,5.854,5.854,0,0,0-8.088.411,5.436,5.436,0,0,0,.423,7.842A5.855,5.855,0,0,0,1815.315,2987.559Zm-8.957,1.456a6.746,6.746,0,0,1-.526-9.731,7.258,7.258,0,0,1,10.031-.51,6.745,6.745,0,0,1,.574,9.68l4.557,4.5-1.067,1.053-4.614-4.554A7.277,7.277,0,0,1,1806.358,2989.015Z" transform="translate(-1804.007 -2977.005)"/>
</svg>
