<svg xmlns="http://www.w3.org/2000/svg" width="100%" height="100%" viewBox="0 0 383.037 298.25">
  <defs>
    <style>
      .cls-1 {
        opacity: 0.9;
      }

      .cls-2, .cls-3 {
        fill: #fff;
      }

      .cls-3 {
        stroke: #a0a0a0;
        stroke-width: 6px;
      }

      .cls-10, .cls-3, .cls-9 {
        stroke-miterlimit: 10;
      }

      .cls-4 {
        fill: #3e4f59;
      }

      .cls-5 {
        fill: #a0a0a0;
      }

      .cls-6 {
        fill: #d1d1d1;
      }

      .cls-7 {
        fill: #b8b8b8;
      }

      .cls-8 {
        fill: #dbdbdb;
      }

      .cls-10, .cls-9 {
        fill: none;
      }

      .cls-9 {
        stroke: #fff;
        stroke-width: 0.898px;
      }

      .cls-10 {
        stroke: #999;
        stroke-width: 0.449px;
      }

      .cls-11 {
        fill: #9e9e9e;
      }
    </style>
  </defs>
  <g id="_-e-ic_no_data_found" data-name="-e-ic_no_data_found" transform="translate(-102.478 -89.25)">
    <g id="Group_169" data-name="Group 169" transform="translate(301.63 140.276)">
      <g id="Group_168" data-name="Group 168" class="cls-1" transform="translate(0 0)">
        <path id="Path_55" data-name="Path 55" class="cls-2" d="M458.132,232.107a10.968,10.968,0,1,1-10.968-10.967A10.968,10.968,0,0,1,458.132,232.107Z" transform="translate(-436.196 -193.458)"/>
        <path id="Path_56" data-name="Path 56" class="cls-2" d="M488.763,218.979A10.968,10.968,0,1,1,477.8,208.011,10.967,10.967,0,0,1,488.763,218.979Z" transform="translate(-448.548 -188.164)"/>
        <path id="Path_57" data-name="Path 57" class="cls-2" d="M584.711,234.733a10.968,10.968,0,1,1-10.969-10.968A10.969,10.969,0,0,1,584.711,234.733Z" transform="translate(-487.237 -194.517)"/>
        <path id="Path_58" data-name="Path 58" class="cls-2" d="M543.773,197.473a22.719,22.719,0,1,1-22.719-22.719A22.719,22.719,0,0,1,543.773,197.473Z" transform="translate(-461.253 -174.754)"/>
        <path id="Path_59" data-name="Path 59" class="cls-2" d="M534.714,235.451a10.513,10.513,0,0,1-10.357,10.662h-77.8A10.513,10.513,0,0,1,436.2,235.451h0a10.513,10.513,0,0,1,10.357-10.663h77.8a10.513,10.513,0,0,1,10.357,10.663Z" transform="translate(-436.196 -194.929)"/>
        <rect id="Rectangle_22" data-name="Rectangle 22" class="cls-2" width="71.552" height="18.802" transform="translate(10.968 30.815)"/>
      </g>
    </g>
    <g id="Group_171" data-name="Group 171" transform="translate(168.493 175.14)">
      <g id="Group_170" data-name="Group 170" class="cls-1">
        <path id="Path_60" data-name="Path 60" class="cls-2" d="M229.919,277.15a8.41,8.41,0,1,1-8.41-8.409A8.41,8.41,0,0,1,229.919,277.15Z" transform="translate(-213.1 -247.516)"/>
        <path id="Path_61" data-name="Path 61" class="cls-2" d="M253.405,267.084a8.41,8.41,0,1,1-8.41-8.409A8.409,8.409,0,0,1,253.405,267.084Z" transform="translate(-222.57 -243.457)"/>
        <path id="Path_62" data-name="Path 62" class="cls-2" d="M326.971,279.163a8.41,8.41,0,1,1-8.41-8.41A8.409,8.409,0,0,1,326.971,279.163Z" transform="translate(-252.235 -248.328)"/>
        <path id="Path_63" data-name="Path 63" class="cls-2" d="M295.583,250.595a17.42,17.42,0,1,1-17.42-17.42A17.419,17.419,0,0,1,295.583,250.595Z" transform="translate(-232.312 -233.175)"/>
        <path id="Path_64" data-name="Path 64" class="cls-2" d="M288.637,279.714a8.06,8.06,0,0,1-7.941,8.175H221.041a8.06,8.06,0,0,1-7.941-8.175h0a8.061,8.061,0,0,1,7.941-8.176H280.7a8.061,8.061,0,0,1,7.941,8.176Z" transform="translate(-213.1 -248.644)"/>
        <rect id="Rectangle_23" data-name="Rectangle 23" class="cls-2" width="54.862" height="14.416" transform="translate(8.41 23.627)"/>
      </g>
    </g>
    <g id="Group_173" data-name="Group 173" transform="translate(357.965 221.599)">
      <g id="Group_172" data-name="Group 172" class="cls-1">
        <path id="Path_65" data-name="Path 65" class="cls-2" d="M559,385.281a14.2,14.2,0,1,1-14.2-14.2A14.2,14.2,0,0,1,559,385.281Z" transform="translate(-530.598 -335.243)"/>
        <path id="Path_66" data-name="Path 66" class="cls-2" d="M598.656,368.284a14.2,14.2,0,1,1-14.2-14.2A14.2,14.2,0,0,1,598.656,368.284Z" transform="translate(-546.589 -328.389)"/>
        <path id="Path_67" data-name="Path 67" class="cls-2" d="M722.878,388.68a14.2,14.2,0,1,1-14.2-14.2A14.2,14.2,0,0,1,722.878,388.68Z" transform="translate(-596.68 -336.613)"/>
        <path id="Path_68" data-name="Path 68" class="cls-2" d="M669.877,340.441a29.414,29.414,0,1,1-29.414-29.414A29.415,29.415,0,0,1,669.877,340.441Z" transform="translate(-563.038 -311.027)"/>
        <path id="Path_69" data-name="Path 69" class="cls-2" d="M658.148,389.61a13.611,13.611,0,0,1-13.409,13.8H544.007a13.611,13.611,0,0,1-13.409-13.8h0a13.611,13.611,0,0,1,13.409-13.8H644.738a13.611,13.611,0,0,1,13.409,13.8Z" transform="translate(-530.598 -337.148)"/>
        <rect id="Rectangle_24" data-name="Rectangle 24" class="cls-2" width="92.638" height="24.343" transform="translate(14.2 39.895)"/>
      </g>
    </g>
    <g id="Group_175" data-name="Group 175" transform="translate(102.478 254.733)">
      <g id="Group_174" data-name="Group 174" class="cls-1">
        <path id="Path_70" data-name="Path 70" class="cls-2" d="M138.923,461.838A18.223,18.223,0,1,1,120.7,443.615,18.223,18.223,0,0,1,138.923,461.838Z" transform="translate(-102.478 -397.625)"/>
        <path id="Path_71" data-name="Path 71" class="cls-2" d="M189.816,440.026A18.223,18.223,0,1,1,171.594,421.8,18.222,18.222,0,0,1,189.816,440.026Z" transform="translate(-123 -388.829)"/>
        <path id="Path_72" data-name="Path 72" class="cls-2" d="M349.227,466.2A18.223,18.223,0,1,1,331,447.977,18.223,18.223,0,0,1,349.227,466.2Z" transform="translate(-187.279 -399.384)"/>
        <path id="Path_73" data-name="Path 73" class="cls-2" d="M281.212,404.3a37.747,37.747,0,1,1-37.747-37.747A37.747,37.747,0,0,1,281.212,404.3Z" transform="translate(-144.108 -366.549)"/>
        <path id="Path_74" data-name="Path 74" class="cls-2" d="M266.161,467.393a17.467,17.467,0,0,1-17.208,17.716H119.686a17.467,17.467,0,0,1-17.208-17.716h0a17.466,17.466,0,0,1,17.208-17.715H248.953a17.467,17.467,0,0,1,17.208,17.715Z" transform="translate(-102.478 -400.069)"/>
        <rect id="Rectangle_25" data-name="Rectangle 25" class="cls-2" width="118.881" height="31.239" transform="translate(18.223 51.197)"/>
      </g>
    </g>
    <circle id="Ellipse_14" data-name="Ellipse 14" class="cls-3" cx="99.278" cy="99.278" r="99.278" transform="translate(191.874 185.944)"/>
    <g id="Group_183" data-name="Group 183" transform="translate(226.121 89.25)">
      <g id="Group_178" data-name="Group 178" transform="translate(0 10.184)">
        <g id="Group_176" data-name="Group 176" transform="translate(22.802 99.402)">
          <path id="Path_75" data-name="Path 75" class="cls-4" d="M382.289,332.568l-.59,9.013h24.785a13.99,13.99,0,0,0-10.01-8.644l7.241-30.56c-4.927-13.572-17.476-28.231-17.476-28.231l-27.85.655-10.513-1.917,2.478,10.386c2.388,10,5.673,26.419,7.1,37.824,1.171,9.357.538,37.614.538,37.614h12.375s2.492-25.347,2.492-35.249c0-5.324-.865-21.449-1.539-33.208l15.515,12.128c0,11.121-3.693,27.345-4.362,30.192Z" transform="translate(-347.876 -272.883)"/>
          <path id="Path_76" data-name="Path 76" class="cls-4" d="M378.09,416.7l-14.16.015,0,7.656,22.086.138S387.929,418.968,378.09,416.7Z" transform="translate(-354.349 -330.874)"/>
        </g>
        <g id="Group_177" data-name="Group 177">
          <path id="Path_77" data-name="Path 77" class="cls-4" d="M375.725,108.6l-8.079,1.967s2.179,24.964,2.179,27.331c0,.672-6.613,1.636-10.793,2.179l-.01-.035c-10.68,1.368-10.751-4.222-10.738-4.7.045-.545.109-.994.109-.994s3.18-.434,4.266-2.605c.482-.964-.407-4.767-1.544-8.7l1.819-1.4-3.224-3.177c-.445-1.384-1.648-4.718-1.972-5.669a9.433,9.433,0,0,0,1.367-2.274,16.516,16.516,0,0,0,1.161-4.21,18.216,18.216,0,0,1-8.823,1.138c-2.437-.373-8.67.075-10.334,1.085a8.349,8.349,0,0,0-3.58,4.261,17.3,17.3,0,0,0-.893,10.436c1.51,6.39,8.185,12.806,8.185,12.806v6.541s-11.838,5.748-12.928,6.817c-3.768,3.691-10.144,24.73-12.13,32.408-1.195,4.621,9.073,8.989,18.133,11.9.62,15.106.62,15.123.62,15.123l47.534-1.847s-5.075-18.977-8.306-32.139c-2.56-10.421-4.485-18.143-5.867-23.631l.153.266s16.282-2.972,17.32-5.5C380.777,142.5,375.725,108.6,375.725,108.6Zm-53.1,69.812a32.4,32.4,0,0,1,4.287-8.753c.241,5.886.446,10.873.62,15.123C324.267,183.276,321.9,181.2,322.623,178.415Z" transform="translate(-309.666 -106.316)"/>
          <path id="Path_78" data-name="Path 78" class="cls-4" d="M361.476,153.506c.005-.041.01-.083.016-.129l-.005.134Z" transform="translate(-330.558 -125.293)"/>
          <path id="Path_79" data-name="Path 79" class="cls-4" d="M376.566,137.115s-1.649,1.243-5.137,1.073a6.4,6.4,0,0,0,5.629.455" transform="translate(-334.571 -118.735)"/>
        </g>
      </g>
      <g id="Group_180" data-name="Group 180" transform="translate(31.748 66.631)">
        <g id="Group_179" data-name="Group 179">
          <path id="Path_80" data-name="Path 80" class="cls-5" d="M449.742,426.03c0,1.192,1.415,2.157,3.16,2.157h0c1.746,0,3.162-.966,3.162-2.157V203.061c0-1.191-1.416-2.158-3.162-2.158h0c-1.745,0-3.16.967-3.16,2.158Z" transform="translate(-397.898 -200.903)"/>
          <rect id="Rectangle_26" data-name="Rectangle 26" class="cls-5" width="51.407" height="5.343" transform="translate(3.597 112.334)"/>
          <rect id="Rectangle_27" data-name="Rectangle 27" class="cls-5" width="51.407" height="5.343" transform="translate(3.597 136.588)"/>
          <rect id="Rectangle_28" data-name="Rectangle 28" class="cls-5" width="51.407" height="5.343" transform="translate(3.597 53.258)"/>
          <rect id="Rectangle_29" data-name="Rectangle 29" class="cls-5" width="51.407" height="5.343" transform="translate(3.597 26.453)"/>
          <rect id="Rectangle_30" data-name="Rectangle 30" class="cls-5" width="51.407" height="5.343" transform="translate(3.597 77.513)"/>
          <rect id="Rectangle_31" data-name="Rectangle 31" class="cls-5" width="51.407" height="5.343" transform="translate(3.597 163.187)"/>
          <rect id="Rectangle_32" data-name="Rectangle 32" class="cls-5" width="51.407" height="5.343" transform="translate(3.597 187.442)"/>
          <rect id="Rectangle_33" data-name="Rectangle 33" class="cls-5" width="51.407" height="5.343" transform="translate(3.597 214.041)"/>
          <path id="Path_81" data-name="Path 81" class="cls-5" d="M362.867,423.256c0,1.192,1.415,2.462,3.161,2.462h0c1.746,0,3.162,1.5,3.162.312V203.061c0-1.191-1.416-2.158-3.162-2.158h0c-1.746,0-3.161.967-3.161,2.158Z" transform="translate(-362.867 -200.903)"/>
        </g>
      </g>
      <g id="Group_182" data-name="Group 182" transform="translate(41.787)">
        <g id="Group_181" data-name="Group 181">
          <path id="Path_82" data-name="Path 82" class="cls-6" d="M425.114,89.493,414.395,98.4l3.878,7.614,12.266-2.618" transform="translate(-393.684 -89.348)"/>
          <path id="Path_83" data-name="Path 83" class="cls-7" d="M430.184,97.772c1.5,3.84,4.343,6.315,6.359,5.529s2.432-4.535.936-8.374-4.345-6.316-6.361-5.532S428.688,93.93,430.184,97.772Z" transform="translate(-399.688 -89.25)"/>
          <path id="Path_84" data-name="Path 84" class="cls-6" d="M409.48,110.478l-19.529,6.143s-4.846-2.017-3.756-9.328l17.861-10.72" transform="translate(-382.248 -92.203)"/>
          <path id="Path_85" data-name="Path 85" class="cls-7" d="M414.059,104.85c1.5,3.839,4.346,6.314,6.359,5.53s2.433-4.535.936-8.374-4.344-6.317-6.359-5.531S412.562,101.011,414.059,104.85Z" transform="translate(-393.186 -92.105)"/>
          <path id="Path_86" data-name="Path 86" class="cls-8" d="M387.819,123.6l-2.616.6-1.406-3.715,2.125-1.1" transform="translate(-381.345 -101.4)"/>
          <path id="Path_87" data-name="Path 87" class="cls-8" d="M382.141,120.988l-2.391-.357c-.513,3.428,2.418,6.215,2.418,6.215l1.379-2.144" transform="translate(-379.689 -101.904)"/>
        </g>
        <line id="Line_17" data-name="Line 17" class="cls-9" x1="1.963" y2="4.446" transform="translate(32.373 3.904)"/>
        <line id="Line_18" data-name="Line 18" class="cls-9" x1="1.389" y2="3.145" transform="translate(34.524 6.388)"/>
        <line id="Line_19" data-name="Line 19" class="cls-9" x1="1.965" y2="4.446" transform="translate(22.749 7.961)"/>
        <line id="Line_20" data-name="Line 20" class="cls-9" x1="1.39" y2="3.145" transform="translate(24.901 10.445)"/>
        <path id="Path_88" data-name="Path 88" class="cls-10" d="M389.985,123.864c-4.867-2.793-3.756-9.328-3.756-9.328" transform="translate(-382.282 -99.446)"/>
        <path id="Path_89" data-name="Path 89" class="cls-11" d="M411.349,119.836a2.473,2.473,0,0,1-1.889-.237l-18.21,5.771.8.536Z" transform="translate(-384.35 -101.488)"/>
        <path id="Path_90" data-name="Path 90" class="cls-10" d="M385.2,124.944a7.217,7.217,0,0,1-1.405-3.715" transform="translate(-381.345 -102.145)"/>
      </g>
    </g>
  </g>
</svg>
