<svg xmlns="http://www.w3.org/2000/svg" width="100%" height="100%" viewBox="0 0 100% 100%">
  <defs>
    <style>
      .cls-1 {
        fill: #d1d3d4;
      }
    </style>
  </defs>
  <g id="_-e-ic_cart" data-name="-e-ic_cart" transform="translate(-401.362 -402.435)">
    <path id="Path_41" data-name="Path 41" class="cls-1" d="M421.333,409.182a1.557,1.557,0,0,0-1.63-1.279c-.677,0-1.355,0-2.032,0a.312.312,0,0,1-.289-.144q-1.749-2.421-3.506-4.837a1.169,1.169,0,0,0-1.645-.263,1.152,1.152,0,0,0-.236,1.643q1.289,1.705,2.58,3.41c.04.054.079.109.129.176H408.02c.067-.092.119-.165.173-.236q1.268-1.674,2.533-3.347a1.152,1.152,0,0,0-.233-1.644,1.172,1.172,0,0,0-1.657.274q-1.752,2.42-3.506,4.837a.278.278,0,0,1-.257.131c-.69-.006-1.38-.005-2.07,0a2.171,2.171,0,0,0-.426.04,1.559,1.559,0,0,0-1.215,1.525,1.636,1.636,0,0,0,1.233,1.551c.378.08.421.125.484.5.012.077.027.154.04.231q.629,3.455,1.256,6.909a1.157,1.157,0,0,0,1.161.963q5.821,0,11.641,0a1.162,1.162,0,0,0,1.172-.975q.4-2.168.788-4.338.258-1.43.519-2.859c.05-.274.155-.375.365-.421a1.61,1.61,0,0,0,1.264-1.089c.027-.079.051-.159.077-.239v-.469A.175.175,0,0,1,421.333,409.182Zm-8.7-5.328a.371.371,0,0,1,.065-.563.385.385,0,0,1,.56.115q1.3,1.782,2.589,3.566l.676.931c-.273,0-.5.007-.727,0a.266.266,0,0,1-.172-.1Q414.126,405.831,412.633,403.854Zm-6.265,3.817q1.546-2.131,3.093-4.26a.388.388,0,0,1,.575-.113.377.377,0,0,1,.045.567q-1.482,1.961-2.969,3.916a.367.367,0,0,1-.238.117c-.21.016-.422.005-.667.005C406.275,407.8,406.32,407.737,406.368,407.671Zm14.209,1.872a.783.783,0,0,1-.8.7q-2.393,0-4.784,0-1,0-1.992,0c-.286,0-.463.151-.464.388s.178.389.462.389h5.943c-.177.978-.351,1.937-.525,2.9q-.4,2.207-.8,4.413c-.077.425-.165.507-.587.507H405.679c-.39,0-.495-.09-.564-.466q-.663-3.646-1.328-7.291a.329.329,0,0,1,.006-.056h5.853a1.278,1.278,0,0,0,.215-.008.388.388,0,0,0-.017-.769,1.584,1.584,0,0,0-.2,0q-3.3,0-6.6,0a1.282,1.282,0,0,1-.366-.042.774.774,0,0,1-.535-.832.786.786,0,0,1,.717-.684c.065-.005.13,0,.195,0h16.6a1.492,1.492,0,0,1,.292.015A.782.782,0,0,1,420.577,409.543Z"/>
    <path id="Path_42" data-name="Path 42" class="cls-1" d="M407.454,412.2a1.173,1.173,0,0,0-1.17,1.206c0,.508,0,1.016,0,1.523s0,1.029,0,1.543a1.171,1.171,0,1,0,2.342,0q.006-1.533,0-3.066A1.17,1.17,0,0,0,407.454,412.2Zm.391,4.226c0,.282-.156.461-.391.46s-.389-.179-.389-.462c0-.5,0-1,0-1.5s0-.988,0-1.481c0-.282.154-.46.391-.46s.389.179.389.462Q407.847,414.935,407.845,416.426Z"/>
    <path id="Path_43" data-name="Path 43" class="cls-1" d="M411.356,412.2a1.176,1.176,0,0,0-1.166,1.231c0,.5,0,1,0,1.5s0,1,0,1.5a1.172,1.172,0,1,0,2.342.008q0-1.514,0-3.027A1.171,1.171,0,0,0,411.356,412.2Zm.4,4.218c0,.285-.149.463-.383.468s-.4-.178-.4-.473q0-1.482,0-2.963c0-.286.147-.463.383-.468s.4.177.4.473c0,.5,0,1,0,1.5S411.753,415.93,411.752,416.418Z"/>
    <path id="Path_44" data-name="Path 44" class="cls-1" d="M414.1,416.438a1.173,1.173,0,1,0,2.343.008q0-1.514,0-3.027a1.173,1.173,0,1,0-2.343.012c0,.5,0,1,0,1.5S414.1,415.937,414.1,416.438Zm.781-3c0-.281.157-.46.394-.458s.386.179.387.464c0,.5,0,1,0,1.5s0,.987,0,1.481c0,.281-.158.46-.393.458s-.387-.18-.388-.464Q414.876,414.931,414.877,413.44Z"/>
    <path id="Path_45" data-name="Path 45" class="cls-1" d="M411.351,411.026a.389.389,0,1,0-.378-.409A.394.394,0,0,0,411.351,411.026Z"/>
  </g>
</svg>
