<svg xmlns="http://www.w3.org/2000/svg" width="48" height="48">
    <path fill="#FFF" fill-rule="evenodd" stroke="#D60080" stroke-width="2" d="M23.5 1c12.426 0 22.499 10.074 22.499 22.5 0 12.427-10.073 22.501-22.499 22.501-12.426 0-22.499-10.074-22.499-22.501C1.001 11.074 11.074 1 23.5 1z"/>
    <path fill="#D60080" fill-rule="evenodd" stroke="#D60080" stroke-width="2" d="M32.594 19.161L20.827 29.658a1.186 1.186 0 0 1-1.01.27 1.476 1.476 0 0 1-1.232-.495l-4.538-5.343c-1.292-1.412.617-2.856 1.939-1.415l3.889 4.579 11.111-9.913a1.208 1.208 0 0 1 1.709.103 1.22 1.22 0 0 1-.101 1.717z"/>
</svg>
