<svg xmlns="http://www.w3.org/2000/svg" width="100%" height="100%" viewBox="0 0 93.101 60.708">
  <defs>
    <style>
      .cls-1 {
        fill: #252525;
      }
    </style>
  </defs>
  <path id="_-e-ic_laptop" data-name="-e-ic_laptop" class="cls-1" d="M5293.079,10081.425h74.931c1.558,0,4.878-3.064,4.878-4.605v-45.046a5.1,5.1,0,0,0-4.878-4.8h-74.931c-2.952-.453-5.474,2.468-4.877,4.205v45.646C5288.2,10078.36,5291.523,10081.425,5293.079,10081.425Zm-.673-50.251h75.677v45.646h-75.677Zm84.689,52.545,0,1.644c0,.809-1.672,2.268-2.271,2.268h-88.553c-.6,0-2.271-1.461-2.271-2.268l0-1.644,36.333-.025c.188.849,1.58,2.27,2.271,2.27h15.894c.693,0,2.082-1.421,2.271-2.27Z" transform="translate(-5283.995 -10026.922)"/>
</svg>
